#!OML:ASF H:\ManfredObstacles\Project 1\Capture day 2\Session 1\male.ASF
:FULLY-SPECIFIED
:DEGREES
543
root 0.966068 15.9396 -14.8226 -175.423 3.79129 176.06
lowerback -4.4287 -0.278732 -5.88292
upperback 1.93645 0.0909709 -0.918741
thorax 4.49724 -0.089363 2.35566
lowerneck -33.6558 0.358718 2.64736
upperneck 35.8622 0.438381 -0.367336
head 19.5433 0.930437 -0.36526
rclavicle 5.41688e-015 5.56597e-015
rhumerus -38.0878 -20.707 -74.6401
rradius 26.8994
rwrist 35.7675
rhand -0.604448 -5.10802
rfingers 7.12502
rthumb 25.0113 -33.4907
lclavicle 5.41688e-015 5.56597e-015
lhumerus -24.5447 2.48132 85.8679
lradius 28.9414
lwrist -42.7658
lhand 2.3094 5.57397
lfingers 7.12502
lthumb 27.8004 33.5377
rfemur -23.5735 12.2287 16.513
rtibia 39.7209
rfoot -17.8569 -19.1877
rtoes -22.8268
lfemur -16.9217 -5.76667 -27.5201
ltibia 27.8375
lfoot -3.90998 17.1829
ltoes 9.68317
544
root 0.977228 15.9327 -14.8713 -175.468 3.72368 176.048
lowerback -4.41708 -0.294604 -5.92116
upperback 1.93342 0.0728115 -0.933235
thorax 4.48927 -0.0985583 2.36051
lowerneck -33.7188 0.275897 2.51309
upperneck 35.9011 0.335499 -0.247314
head 19.5795 0.892353 -0.309207
rclavicle 9.29318e-015 3.8763e-015
rhumerus -38.3121 -21.0315 -74.5372
rradius 26.8548
rwrist 36.0273
rhand -0.564569 -5.04788
rfingers 7.12502
rthumb 25.0495 -33.4252
lclavicle 9.29318e-015 3.8763e-015
lhumerus -24.6333 2.86952 85.7015
lradius 28.6494
lwrist -43.65
lhand 2.39042 5.33137
lfingers 7.12502
lthumb 27.8779 33.2826
rfemur -23.2664 12.6561 16.5007
rtibia 38.5006
rfoot -17.6561 -18.7066
rtoes -22.9926
lfemur -16.7377 -5.66298 -27.5278
ltibia 27.932
lfoot -4.13519 17.1796
ltoes 9.54247
545
root 0.984044 15.9301 -14.9246 -175.493 3.51567 176.035
lowerback -4.55564 -0.333204 -5.88775
upperback 1.99342 0.0299841 -0.904131
thorax 4.63435 -0.124655 2.3683
lowerneck -33.973 0.166203 2.2674
upperneck 36.1001 0.232658 -0.0508788
head 19.7603 0.856396 -0.193251
rclavicle -6.95746e-015 -1.88845e-014
rhumerus -38.2701 -20.968 -74.5315
rradius 26.7065
rwrist 35.7544
rhand -0.607949 -5.14366
rfingers 7.12502
rthumb 25.0079 -33.5268
lclavicle -6.95746e-015 -1.88845e-014
lhumerus -24.6352 2.85384 85.8061
lradius 28.4359
lwrist -43.4302
lhand 2.35473 5.39715
lfingers 7.12502
lthumb 27.8438 33.3539
rfemur -22.8972 12.6626 16.5356
rtibia 37.4354
rfoot -16.8169 -18.2641
rtoes -23.3776
lfemur -16.4978 -5.59755 -27.5638
ltibia 27.9811
lfoot -4.41018 17.1013
ltoes 9.38694
546
root 0.991165 15.9269 -14.975 -175.496 3.45621 175.953
lowerback -4.71426 -0.346143 -5.92728
upperback 1.9911 0.0294714 -0.93597
thorax 4.72252 -0.127446 2.35725
lowerneck -33.7899 0.354898 2.73393
upperneck 35.8908 0.397712 -0.430878
head 19.5932 0.916336 -0.42188
rclavicle -3.98812e-015 9.54166e-015
rhumerus -38.5183 -20.9948 -74.5485
rradius 26.8068
rwrist 35.5722
rhand -0.520952 -5.2434
rfingers 7.12502
rthumb 25.0913 -33.6149
lclavicle -3.98812e-015 9.54166e-015
lhumerus -24.7938 3.12381 85.7319
lradius 28.2862
lwrist -43.774
lhand 2.30315 5.32021
lfingers 7.12502
lthumb 27.7945 33.2849
rfemur -22.61 12.6106 16.5014
rtibia 36.6352
rfoot -15.7794 -17.7274
rtoes -23.1327
lfemur -16.2615 -5.56198 -27.6715
ltibia 27.959
lfoot -4.60017 17.1448
ltoes 9.29535
547
root 1.00054 15.9254 -15.026 -175.532 3.34528 175.877
lowerback -4.8073 -0.339566 -5.952
upperback 1.97232 0.0474979 -0.957038
thorax 4.75442 -0.119206 2.3508
lowerneck -33.5171 0.346029 2.69977
upperneck 35.7038 0.433036 -0.492485
head 19.4147 0.909846 -0.439255
rclavicle -1.18215e-014 2.0773e-014
rhumerus -38.7346 -21.1231 -74.4448
rradius 26.7592
rwrist 35.7888
rhand -0.560134 -5.23764
rfingers 7.12502
rthumb 25.0538 -33.6144
lclavicle -1.18215e-014 2.0773e-014
lhumerus -24.971 3.15793 85.7083
lradius 28.0315
lwrist -44.0578
lhand 2.42552 5.24961
lfingers 7.12502
lthumb 27.9115 33.1954
rfemur -22.2647 12.4199 16.561
rtibia 36.086
rfoot -14.4336 -17.7494
rtoes -22.6055
lfemur -15.9684 -5.48129 -27.7524
ltibia 27.8823
lfoot -4.76859 17.0736
ltoes 9.09782
548
root 1.01208 15.9274 -15.0661 -175.592 3.22431 175.874
lowerback -4.77562 -0.336558 -5.9565
upperback 1.98536 0.0505351 -0.957898
thorax 4.74986 -0.117745 2.35267
lowerneck -33.6923 0.0489892 2.17484
upperneck 36.3207 0.169076 -0.00990255
head 19.8228 0.850908 -0.165246
rclavicle -1.41013e-015 -3.32964e-014
rhumerus -38.8163 -21.3944 -74.36
rradius 26.6091
rwrist 35.9167
rhand -0.544948 -5.27976
rfingers 7.12502
rthumb 25.0683 -33.6545
lclavicle -1.41013e-015 -3.32964e-014
lhumerus -25.0585 3.34428 85.6259
lradius 27.8359
lwrist -44.4389
lhand 2.50078 5.16056
lfingers 7.12502
lthumb 27.9834 33.0946
rfemur -21.862 12.1439 16.7461
rtibia 35.8162
rfoot -13.2251 -17.7485
rtoes -20.059
lfemur -15.6906 -5.44292 -27.7269
ltibia 27.7762
lfoot -4.92219 16.9994
ltoes 9.02898
549
root 1.02261 15.932 -15.1102 -175.545 3.24609 175.921
lowerback -4.90071 -0.288874 -5.85707
upperback 1.91902 0.111379 -0.958436
thorax 4.74562 -0.0842536 2.30206
lowerneck -33.5233 0.0906088 2.36439
upperneck 36.3225 0.24242 -0.232735
head 19.7827 0.876036 -0.288013
rclavicle -2.92586e-015 2.73329e-014
rhumerus -39.0246 -21.2929 -74.4015
rradius 26.5593
rwrist 35.8076
rhand -0.706197 -5.20952
rfingers 7.12502
rthumb 24.9138 -33.6057
lclavicle -2.92586e-015 2.73329e-014
lhumerus -25.2467 3.69144 85.509
lradius 27.5513
lwrist -44.9035
lhand 2.64915 5.06676
lfingers 7.12502
lthumb 28.1252 32.9776
rfemur -21.5747 12.0135 16.9155
rtibia 35.7155
rfoot -12.4988 -17.4389
rtoes -15.7773
lfemur -15.4686 -5.38652 -27.6545
ltibia 27.6168
lfoot -4.99336 17.0028
ltoes 8.89754
550
root 1.03506 15.9325 -15.1545 -175.63 3.20208 175.868
lowerback -4.9754 -0.286373 -5.89385
upperback 1.97611 0.12811 -0.979115
thorax 4.84694 -0.0797308 2.30261
lowerneck -33.5253 0.0756888 2.35883
upperneck 36.3363 0.22479 -0.230803
head 19.7912 0.870098 -0.290248
rclavicle 3.3048e-015 -3.26007e-014
rhumerus -38.9622 -21.635 -74.3178
rradius 26.3103
rwrist 36.1069
rhand -0.679576 -5.25502
rfingers 7.12502
rthumb 24.9393 -33.6477
lclavicle 3.3048e-015 -3.26007e-014
lhumerus -25.3417 4.00283 85.4131
lradius 27.303
lwrist -45.2487
lhand 2.41815 4.97821
lfingers 7.12502
lthumb 27.9044 32.9251
rfemur -21.1592 11.9586 16.9999
rtibia 35.6556
rfoot -12.2332 -17.6195
rtoes -14.6179
lfemur -15.1137 -5.46109 -27.6964
ltibia 27.483
lfoot -5.03674 17.1073
ltoes 8.83578
551
root 1.04509 15.9371 -15.1982 -175.678 3.1912 175.713
lowerback -5.00286 -0.232829 -6.00118
upperback 1.93674 0.21032 -1.00977
thorax 4.81486 -0.0395489 2.33839
lowerneck -33.3668 0.0118899 2.22272
upperneck 36.3742 0.216579 -0.183869
head 19.7738 0.862806 -0.243277
rclavicle 2.21769e-015 -9.69075e-015
rhumerus -39.1957 -21.718 -74.1939
rradius 26.2237
rwrist 36.2036
rhand -0.729091 -5.29881
rfingers 7.12502
rthumb 24.8918 -33.698
lclavicle 2.21769e-015 -9.69075e-015
lhumerus -25.55 4.2114 85.4325
lradius 27.0201
lwrist -45.1806
lhand 2.45155 5.13018
lfingers 7.12502
lthumb 27.9364 33.0719
rfemur -20.8247 11.7327 16.9425
rtibia 35.5601
rfoot -11.8132 -17.2937
rtoes -12.6177
lfemur -14.7878 -5.51936 -27.8633
ltibia 27.3269
lfoot -5.09224 17.2047
ltoes 8.55619
552
root 1.05984 15.9415 -15.2359 -175.733 3.23465 175.868
lowerback -5.00611 -0.168739 -5.83304
upperback 1.97359 0.284828 -1.00917
thorax 4.8486 0.000446866 2.25166
lowerneck -33.4485 0.016213 2.20886
upperneck 36.3708 0.202747 -0.139903
head 19.7921 0.8607 -0.223071
rclavicle -5.34234e-015 -8.05078e-015
rhumerus -39.2474 -22.0383 -74.1969
rradius 26.1406
rwrist 36.5781
rhand -0.630486 -5.28226
rfingers 7.12502
rthumb 24.9863 -33.6684
lclavicle -5.34234e-015 -8.05078e-015
lhumerus -25.6209 4.85549 85.1625
lradius 26.669
lwrist -45.8907
lhand 2.11532 4.9539
lfingers 7.12502
lthumb 27.6149 32.9475
rfemur -20.5344 11.61 17.2428
rtibia 35.3773
rfoot -11.1778 -17.0413
rtoes -11.177
lfemur -14.4864 -5.55255 -27.659
ltibia 27.1595
lfoot -5.03852 17.3068
ltoes 8.47691
553
root 1.06835 15.9462 -15.2718 -175.743 3.29099 175.864
lowerback -4.98153 -0.139057 -5.79435
upperback 1.94223 0.316027 -0.990079
thorax 4.79888 0.0179724 2.25259
lowerneck -33.6488 -0.0811048 1.98804
upperneck 36.6697 0.145893 0.023685
head 20.0256 0.848874 -0.111443
rclavicle -3.88873e-015 -3.53837e-014
rhumerus -39.2794 -22.0328 -74.1784
rradius 25.9584
rwrist 36.7885
rhand -0.807468 -5.33114
rfingers 7.12502
rthumb 24.8167 -33.7408
lclavicle -3.88873e-015 -3.53837e-014
lhumerus -25.717 5.33645 85.0584
lradius 26.3092
lwrist -46.2108
lhand 2.18253 5.06029
lfingers 7.12502
lthumb 27.6791 33.0436
rfemur -20.3376 11.1896 17.3218
rtibia 35.1413
rfoot -10.4285 -16.9035
rtoes -11.1235
lfemur -14.2164 -5.73013 -27.6495
ltibia 26.9718
lfoot -4.91453 17.5334
ltoes 8.4089
554
root 1.07707 15.9534 -15.3196 -175.845 3.3656 175.89
lowerback -5.05849 -0.0786924 -5.68952
upperback 1.91471 0.39414 -1.01508
thorax 4.80751 0.0602649 2.17532
lowerneck -33.3453 0.0432402 2.34754
upperneck 36.4309 0.268574 -0.319953
head 19.804 0.885118 -0.316669
rclavicle -2.28602e-015 -3.97569e-016
rhumerus -39.3543 -22.1719 -74.1151
rradius 25.6667
rwrist 36.9803
rhand -0.876817 -5.39201
rfingers 7.12502
rthumb 24.7503 -33.8108
lclavicle -2.28602e-015 -3.97569e-016
lhumerus -26.0472 6.0605 84.7728
lradius 25.9975
lwrist -46.9437
lhand 2.31736 5.00196
lfingers 7.12502
lthumb 27.8081 32.9645
rfemur -19.9472 10.7085 17.4488
rtibia 34.8689
rfoot -9.96133 -16.6739
rtoes -11.6392
lfemur -13.821 -5.91246 -27.6354
ltibia 26.8586
lfoot -4.88313 17.8495
ltoes 8.50635
555
root 1.08563 15.9586 -15.3608 -175.891 3.4029 175.877
lowerback -5.11153 -0.0319064 -5.62835
upperback 1.94659 0.457471 -1.01893
thorax 4.86617 0.0914117 2.14313
lowerneck -33.3684 0.112611 2.45897
upperneck 36.2663 0.353236 -0.494159
head 19.7118 0.892634 -0.404459
rclavicle -3.3048e-015 7.65321e-015
rhumerus -39.3754 -22.5348 -73.9337
rradius 25.4769
rwrist 37.5096
rhand -0.823731 -5.31101
rfingers 7.12502
rthumb 24.8012 -33.7228
lclavicle -3.3048e-015 7.65321e-015
lhumerus -26.1194 6.57565 84.6792
lradius 25.6042
lwrist -46.7606
lhand 2.08735 5.14449
lfingers 7.12502
lthumb 27.5881 33.1424
rfemur -19.6092 10.4802 17.493
rtibia 34.6121
rfoot -9.65567 -16.4404
rtoes -11.0354
lfemur -13.5242 -6.04717 -27.6552
ltibia 26.7607
lfoot -4.79947 18.0502
ltoes 8.36017
556
root 1.09322 15.9616 -15.3956 -175.894 3.43708 175.99
lowerback -5.15154 -0.00344687 -5.47305
upperback 1.95911 0.481492 -0.963544
thorax 4.89983 0.104572 2.11617
lowerneck -33.3991 0.0537829 2.32284
upperneck 36.5601 0.379934 -0.446899
head 19.899 0.910803 -0.343861
rclavicle -1.16165e-015 2.07233e-014
rhumerus -39.3057 -22.593 -73.8587
rradius 25.2565
rwrist 37.7721
rhand -0.767049 -5.28212
rfingers 7.12502
rthumb 24.8555 -33.6864
lclavicle -1.16165e-015 2.07233e-014
lhumerus -26.2752 7.4461 84.4414
lradius 25.2631
lwrist -47.681
lhand 2.23282 5.13705
lfingers 7.12502
lthumb 27.7272 33.1126
rfemur -19.3499 10.1918 17.6703
rtibia 34.3669
rfoot -9.44872 -16.2072
rtoes -10.7772
lfemur -13.3284 -6.25254 -27.5277
ltibia 26.7024
lfoot -4.68543 18.3087
ltoes 8.27181
557
root 1.10483 15.9666 -15.438 -175.899 3.52206 176.14
lowerback -5.23736 0.0649016 -5.3081
upperback 1.91955 0.558338 -0.913023
thorax 4.90108 0.145685 2.08388
lowerneck -33.491 -0.15722 1.87813
upperneck 36.8298 0.217513 -0.124965
head 20.0852 0.852583 -0.142264
rclavicle -3.6713e-015 2.48978e-014
rhumerus -39.3571 -22.6048 -73.8351
rradius 25.069
rwrist 37.6904
rhand -0.81813 -5.49916
rfingers 7.12502
rthumb 24.8065 -33.9102
lclavicle -3.6713e-015 2.48978e-014
lhumerus -26.5393 8.26329 84.1859
lradius 24.8272
lwrist -48.2569
lhand 2.0309 5.14827
lfingers 7.12502
lthumb 27.5341 33.1547
rfemur -19.0283 10.1804 17.8918
rtibia 34.1281
rfoot -9.34725 -16.1827
rtoes -11.0198
lfemur -13.1233 -6.38029 -27.3559
ltibia 26.7078
lfoot -4.65328 18.5675
ltoes 8.279
